<?xml version="1.0" encoding="UTF-8" standalone="no"?>
<!-- Created with Inkscape (http://www.inkscape.org/) -->

<svg
   version="1.1"
   id="svg2"
   width="42.082191"
   height="42.082191"
   viewBox="0 0 42.082191 42.082191"
   sodipodi:docname="add.svg"
   inkscape:version="1.1.2 (0a00cf5339, 2022-02-04)"
   xmlns:inkscape="http://www.inkscape.org/namespaces/inkscape"
   xmlns:sodipodi="http://sodipodi.sourceforge.net/DTD/sodipodi-0.dtd"
   xmlns="http://www.w3.org/2000/svg"
   xmlns:svg="http://www.w3.org/2000/svg">
  <defs
     id="defs6" />
  <sodipodi:namedview
     id="namedview4"
     pagecolor="#ffffff"
     bordercolor="#666666"
     borderopacity="1.0"
     inkscape:pageshadow="2"
     inkscape:pageopacity="0.0"
     inkscape:pagecheckerboard="0"
     showgrid="false"
     inkscape:zoom="14.923177"
     inkscape:cx="21.041096"
     inkscape:cy="21.007591"
     inkscape:window-width="1680"
     inkscape:window-height="975"
     inkscape:window-x="1680"
     inkscape:window-y="0"
     inkscape:window-maximized="1"
     inkscape:current-layer="g8" />
  <g
     inkscape:groupmode="layer"
     inkscape:label="Image"
     id="g8">
    <g
       id="g1877"
       style="stroke:none">
      <path
         style="fill:none;stroke-width:0.657534;stroke:none;fill-opacity:1"
         d="M 0.0209118,32.383561 C 0.0376426,24.62403 0.20197305,22.89352 0.84282962,23.728212 2.3574656,25.700972 4.5287822,26.301369 10.148554,26.301369 h 5.632268 v 5.632268 c 0,5.619772 0.600397,7.791089 2.573157,9.305725 0.834692,0.640856 -0.895818,0.805186 -8.655349,0.821917 L 0,42.082191 Z m 23.7073002,8.855801 c 1.97276,-1.514636 2.573157,-3.685953 2.573157,-9.305725 v -5.632268 h 5.632268 c 5.619772,0 7.791089,-0.600397 9.305725,-2.573157 0.640856,-0.834692 0.805186,0.895818 0.821917,8.655349 l 0.02091,9.69863 -9.69863,-0.02091 C 24.62403,42.044545 22.89352,41.880218 23.728212,41.239362 Z M 0.0519106,9.69863 0,0 9.69863,0.0519106 c 5.334246,0.02855083 9.322541,0.20322873 8.862878,0.38817312 -1.81957,0.73209858 -2.780686,4.09138938 -2.780686,9.71904328 v 5.621695 h -5.621695 c -5.6276539,0 -8.9869447,0.961116 -9.71904328,2.780686 C 0.25513933,19.021171 0.08046143,15.032876 0.0519106,9.69863 Z m 40.9122684,8.479552 c -1.032207,-1.747709 -3.479361,-2.39736 -9.030542,-2.39736 h -5.632268 v -5.632268 c 0,-5.6197718 -0.600397,-7.7910884 -2.573157,-9.30572438 C 22.89352,0.20197305 24.62403,0.0376426 32.383561,0.0209118 L 42.082191,0 v 9.5342464 c 0,5.2438356 -0.133242,9.5342466 -0.296094,9.5342466 -0.162852,0 -0.532715,-0.40064 -0.821918,-0.890311 z"
         id="path1881" />
      <path
         style="fill:#e5b367;stroke-width:0.657534;stroke:none;fill-opacity:1"
         d="m 18.353979,41.239362 c -1.97276,-1.514636 -2.573157,-3.685953 -2.573157,-9.305725 v -5.632268 h -5.632268 c -7.1385199,0 -10.0751292,-1.46201 -10.1276422,-5.042112 -0.06015255,-4.100933 2.4890076,-5.478435 10.1382152,-5.478435 h 5.621695 v -5.621695 c 0,-7.6492076 1.377502,-10.19836775 5.478435,-10.1382152 3.580102,0.052513 5.042112,2.9891223 5.042112,10.1276422 v 5.632268 h 5.632268 c 7.290462,0 10.10673,1.465789 10.10673,5.260273 0,3.794485 -2.816268,5.260274 -10.10673,5.260274 h -5.632268 v 5.632268 c 0,7.290462 -1.465789,10.10673 -5.260274,10.10673 -0.904109,0 -2.113312,-0.360452 -2.687116,-0.801005 z"
         id="path1879" />
    </g>
  </g>
</svg>
